PathFileType	4	(X/Y/Z)	C:/Users/opensim2020/Desktop/walking_exp_matlab/subject03_walking04_static.trc																																																																																																																																																							
DataRate	CameraRate	NumFrames	NumMarkers	Units	OrigDataRate	OrigDataStartFrame	OrigNumFrames																																																																																																																																																			
100	100	6	51	mm	100	256	196																																																																																																																																																			
Frame#	Time	LFHD			RFHD			LBHD			RBHD			C7			T10			CLAV			STRN			RBAK			LSHO			LUPA			LELB			LFRM			LWRA			LWRB			LFIN			RSHO			RUPA			RELB			RFRM			RWRA			RWRB			RFIN			LASI			RASI			LPSI			RPSI			LTHI			LKNE			LTIB			LANK			LHEE			LTOE			RTHI			RKNE			RTIB			RANK			RHEE			RTOE			*39			*40			*41			*42			*43			*44			*45			*46			*47			*48			*49			*50		
		X1	Y1	Z1	X2	Y2	Z2	X3	Y3	Z3	X4	Y4	Z4	X5	Y5	Z5	X6	Y6	Z6	X7	Y7	Z7	X8	Y8	Z8	X9	Y9	Z9	X10	Y10	Z10	X11	Y11	Z11	X12	Y12	Z12	X13	Y13	Z13	X14	Y14	Z14	X15	Y15	Z15	X16	Y16	Z16	X17	Y17	Z17	X18	Y18	Z18	X19	Y19	Z19	X20	Y20	Z20	X21	Y21	Z21	X22	Y22	Z22	X23	Y23	Z23	X24	Y24	Z24	X25	Y25	Z25	X26	Y26	Z26	X27	Y27	Z27	X28	Y28	Z28	X29	Y29	Z29	X30	Y30	Z30	X31	Y31	Z31	X32	Y32	Z32	X33	Y33	Z33	X34	Y34	Z34	X35	Y35	Z35	X36	Y36	Z36	X37	Y37	Z37	X38	Y38	Z38	X39	Y39	Z39	X40	Y40	Z40	X41	Y41	Z41	X42	Y42	Z42	X43	Y43	Z43	X44	Y44	Z44	X45	Y45	Z45	X46	Y46	Z46	X47	Y47	Z47	X48	Y48	Z48	X49	Y49	Z49	X50	Y50	Z50	X51	Y51	Z51
																																																																																																																																																										
74	0.73	-351.67001	1632.35352	-668.1153	-381.93536	1643.2666	-538.52612	-479.20206	1591.04041	-689.87024	-504.4473	1602.09351	-561.7821	-520.7135	1427.23291	-623.83313	-540.31836	1115.60791	-615.59192	-392.37378	1362.18372	-608.94733	-338.90259	1197.9823	-607.92523	-572.11841	1248.77832	-532.75964	-442.14084	1398.79956	-768.24738	-458.28046	1209.40039	-852.87701	-455.73062	1089.5979	-881.05048	-425.73953	964.1344	-901.4505	-393.87378	846.15021	-891.4613	-429.68304	853.53088	-933.70813	-406.57391	771.62952	-937.12018	-472.12097	1390.16943	-459.52042	-479.93817	1180.20032	-363.52039	-464.7002	1072.99146	-329.34549	-443.63544	939.95654	-300.76669	-400.89743	843.65686	-311.27728	-443.06641	841.9931	-276.2298	-415.34637	771.8266	-270.35562	-385.2009	946.45831	-719.44122	-396.6618	946.93799	-485.50568	-548.74042	979.56732	-679.94562	-553.1123	987.38275	-530.73865	-454.2464	647.44104	-772.13928	-461.27838	469.82379	-735.39478	-517.72418	285.52396	-754.37866	-539.32227	73.92452	-729.79199	-580.73682	36.82794	-696.9599	-387.0094	34.47169	-709.19952	-470.31183	653.75623	-439.95917	-465.63028	473.99823	-473.9902	-518.84686	292.82181	-462.14084	-547.008	76.13609	-501.1347	-587.47107	41.92622	-552.8551	-404.91873	36.44344	-500.46942	-441.63556	1698.41382	-640.85754	NaN	NaN	NaN	NaN	NaN	NaN	NaN	NaN	NaN	NaN	NaN	NaN	NaN	NaN	NaN	NaN	NaN	NaN	NaN	NaN	NaN	NaN	NaN	NaN	NaN	NaN	NaN	NaN	NaN	NaN	NaN	NaN	NaN
75	0.74	-351.55768	1632.26941	-668.32147	-381.77621	1643.29187	-538.75671	-479.09106	1590.94849	-689.96185	-504.25922	1602.10413	-561.85999	-520.57813	1427.20862	-623.84082	-540.10144	1115.53418	-615.58331	-392.23697	1362.17236	-608.93018	-338.72696	1197.98755	-607.91278	-571.97662	1248.7085	-532.81122	-441.8891	1398.74597	-768.22131	-457.87573	1209.29431	-852.81506	-455.31058	1089.5072	-880.93085	-425.33383	964.00531	-901.22803	-393.50183	846.06342	-891.20728	-429.29706	853.43146	-933.51337	-406.23248	771.53448	-937.01556	-472.05292	1390.09595	-459.556	-479.84219	1180.10718	-363.60016	-464.60123	1072.89832	-329.43094	-443.45453	939.86121	-300.90067	-400.68344	843.5603	-311.34955	-442.93777	841.90344	-276.34946	-415.17429	771.75659	-270.4809	-385.00714	946.44104	-719.45111	-396.46582	946.91223	-485.48209	-548.51154	979.53369	-679.88965	-552.94348	987.37286	-530.68201	-454.07397	647.40979	-772.12726	-461.13708	469.79333	-735.38	-517.63593	285.50232	-754.36633	-539.34564	73.89176	-729.74487	-580.73981	36.85306	-696.94574	-386.99402	34.45457	-709.18262	-470.12268	653.7384	-439.95786	-465.42218	474.20306	-473.48666	-518.78632	292.83542	-462.11859	-546.99268	76.20792	-501.0827	-587.48718	41.92872	-552.83984	-404.91498	36.4299	-500.48071	-441.50131	1698.3938	-641.07458	NaN	NaN	NaN	NaN	NaN	NaN	NaN	NaN	NaN	NaN	NaN	NaN	NaN	NaN	NaN	NaN	NaN	NaN	NaN	NaN	NaN	NaN	NaN	NaN	NaN	NaN	NaN	NaN	NaN	NaN	NaN	NaN	NaN
76	0.75	-351.41348	1632.19714	-668.51685	-381.54749	1643.32593	-538.92114	-478.99973	1590.86633	-690.09705	-504.03552	1602.13623	-561.96997	-520.43237	1427.16138	-623.90289	-539.90228	1115.49902	-615.60071	-392.1066	1362.16296	-608.93585	-338.54285	1197.99683	-607.90002	-571.82758	1248.66309	-532.88013	-441.70471	1398.70703	-768.29199	-457.48175	1209.2323	-852.74664	-454.923	1089.41248	-880.83289	-424.94235	963.91541	-901.02271	-393.07925	845.98163	-890.96039	-428.87762	853.32648	-933.30707	-405.76791	771.36316	-936.54504	-471.95447	1390.04846	-459.59039	-479.78912	1180.06433	-363.68716	-464.49911	1072.83948	-329.54672	-443.32672	939.79407	-301.03918	-400.54428	843.4624	-311.58609	-442.77057	841.8078	-276.52557	-415.01376	771.72101	-270.659	-384.80914	946.42938	-719.45001	-396.25717	946.93915	-485.47098	-548.37067	979.58582	-679.9397	-552.81226	987.36493	-530.57312	-453.89441	647.40454	-772.09473	-461.02585	469.81024	-735.36053	-517.56097	285.52545	-754.35498	-539.40997	73.98578	-730.00623	-580.74384	36.84184	-696.9267	-387.00443	34.46281	-709.16736	-469.91629	653.73694	-439.94342	-465.31039	474.21518	-473.45532	-518.72076	292.82379	-462.12808	-547.03619	76.19849	-501.09338	-587.35699	41.8397	-552.56616	-404.9144	36.43472	-500.44736	-441.34924	1698.36353	-641.34076	NaN	NaN	NaN	NaN	NaN	NaN	NaN	NaN	NaN	NaN	NaN	NaN	NaN	NaN	NaN	NaN	NaN	NaN	NaN	NaN	NaN	NaN	NaN	NaN	NaN	NaN	NaN	NaN	NaN	NaN	NaN	NaN	NaN
77	0.76	-351.29593	1632.13708	-668.74384	-381.34274	1643.33606	-539.15277	-478.86154	1590.77563	-690.15851	-503.85529	1602.18323	-562.09625	-520.27551	1427.12207	-623.95898	-539.72632	1115.45667	-615.67102	-391.96848	1362.12341	-608.92383	-338.36606	1197.96985	-607.8761	-571.69824	1248.61487	-532.94708	-441.45911	1398.66748	-768.30463	-457.13727	1209.13611	-852.71045	-454.4949	1089.30579	-880.7757	-424.52243	963.84534	-900.84076	-392.73184	845.85852	-890.71027	-428.40735	853.21808	-933.05902	-405.38354	771.23895	-936.25378	-471.87466	1390.03687	-459.59433	-479.64188	1179.97852	-363.76465	-464.38553	1072.77795	-329.66498	-443.10239	939.58972	-301.23694	-400.37027	843.35095	-311.71497	-442.63031	841.7547	-276.65137	-414.80292	771.63879	-270.86346	-384.59232	946.40887	-719.48254	-396.09033	946.91046	-485.50092	-548.1734	979.55731	-679.9483	-552.60779	987.3374	-530.57727	-453.70074	647.39221	-772.09991	-460.88507	469.77402	-735.34094	-517.47784	285.50598	-754.34534	-539.30261	73.89089	-729.82159	-580.71686	36.8499	-696.9549	-386.99548	34.46388	-709.17932	-469.75769	653.73254	-439.94864	-465.18298	474.18234	-473.50073	-518.64056	292.8331	-462.12686	-546.9798	76.20163	-501.11127	-587.4682	41.96598	-552.86273	-404.90594	36.43204	-500.47833	-441.1691	1698.26062	-641.49701	NaN	NaN	NaN	NaN	NaN	NaN	NaN	NaN	NaN	NaN	NaN	NaN	NaN	NaN	NaN	NaN	NaN	NaN	NaN	NaN	NaN	NaN	NaN	NaN	NaN	NaN	NaN	NaN	NaN	NaN	NaN	NaN	NaN
78	0.77	-351.16193	1632.04932	-668.92645	-381.14438	1643.3468	-539.35217	-478.72174	1590.7052	-690.28345	-503.64804	1602.20544	-562.20496	-520.1261	1427.10291	-624.01044	-539.47961	1115.42383	-615.6225	-391.84619	1362.10535	-608.91052	-338.18631	1197.95068	-607.83948	-571.59692	1248.59399	-533.05878	-441.10178	1398.61646	-768.23669	-456.8295	1209.07251	-852.66626	-454.15775	1089.18872	-880.65948	-424.10269	963.7168	-900.68146	-392.27762	845.73419	-890.46356	-427.93958	853.06299	-932.84601	-405.01581	771.10345	-936.12079	-471.84515	1389.97961	-459.64191	-479.57217	1179.91125	-363.83609	-464.26779	1072.70032	-329.78366	-443.04208	939.64032	-301.34619	-400.20285	843.26746	-311.85556	-442.45297	841.66351	-276.81708	-414.72534	771.51935	-271.00943	-384.39563	946.42365	-719.47125	-395.89951	946.87805	-485.51828	-547.97552	979.50854	-679.92944	-552.45325	987.32117	-530.53552	-453.53482	647.37238	-772.11273	-460.7887	469.76443	-735.36292	-517.42303	285.50211	-754.35187	-539.28455	73.89575	-729.75537	-580.72522	36.85336	-696.95636	-386.98483	34.45838	-709.17511	-469.61429	653.72565	-439.94818	-465.15347	473.94833	-473.97018	-518.60651	292.82599	-462.11426	-547.0376	76.1698	-501.15717	-587.48492	41.96744	-552.86072	-404.89755	36.42649	-500.48438	-441.00864	1698.16211	-641.58759	NaN	NaN	NaN	NaN	NaN	NaN	NaN	NaN	NaN	NaN	NaN	NaN	NaN	NaN	NaN	NaN	NaN	NaN	NaN	NaN	NaN	NaN	NaN	NaN	NaN	NaN	NaN	NaN	NaN	NaN	NaN	NaN	NaN
79	0.78	-351.02792	1631.99146	-669.11401	-380.96362	1643.37732	-539.55719	-478.59106	1590.65576	-690.40747	-503.45615	1602.22839	-562.32166	-520.00677	1427.07764	-624.09167	-539.32123	1115.36816	-615.664	-391.71634	1362.09009	-608.94336	-338.02036	1197.97327	-607.81403	-571.44318	1248.53918	-533.12415	-441.0448	1398.54395	-768.4267	-456.53018	1208.99585	-852.65356	-453.79092	1089.08728	-880.55768	-423.68671	963.58203	-900.49237	-391.88437	845.62524	-890.21521	-427.59644	852.91724	-932.52423	-404.59241	770.92114	-935.7912	-471.76273	1389.95215	-459.69284	-479.45007	1179.86792	-363.95374	-464.17099	1072.62231	-329.90613	-442.88608	939.54279	-301.46814	-400.05099	843.22888	-312.01169	-442.31619	841.59534	-276.97562	-414.50204	771.4245	-271.29678	-384.17923	946.40192	-719.45898	-395.75848	946.85736	-485.57938	-547.84473	979.5094	-679.96796	-552.30005	987.341	-530.42773	-453.36905	647.34338	-772.06982	-460.69638	469.75452	-735.31488	-517.37836	285.52383	-754.36938	-539.31763	73.897	-729.73694	-580.69873	36.85421	-696.92883	-387.00217	34.45358	-709.16339	-469.43549	653.69055	-439.90927	-464.94214	474.17743	-473.46176	-518.51306	292.81482	-462.112	-546.99615	76.20071	-501.12094	-587.47839	41.97522	-552.85999	-404.90039	36.42442	-500.47244	-440.84851	1698.15784	-641.81879	NaN	NaN	NaN	NaN	NaN	NaN	NaN	NaN	NaN	NaN	NaN	NaN	NaN	NaN	NaN	NaN	NaN	NaN	NaN	NaN	NaN	NaN	NaN	NaN	NaN	NaN	NaN	NaN	NaN	NaN	NaN	NaN	NaN
